<svg height="542" width="720" xmlns="http://www.w3.org/2000/svg">
<rect height="542" fill="#555" width="720"></rect>
<text fill="#7f7" font-family="Courier New" font-size="12" xml:space="preserve">
<tspan x="10" y="26">7 megabytes installed</tspan>
<tspan x="10" y="42"></tspan>
<tspan x="10" y="58">node_modules</tspan>
<tspan x="10" y="74">└─┬ zip-stream@1.1.1 </tspan>
<tspan x="10" y="90">  ├─┬ archiver-utils@1.3.0 </tspan>
<tspan x="10" y="106">  │ ├─┬ glob@7.1.1 </tspan>
<tspan x="10" y="122">  │ │ ├── fs.realpath@1.0.0 </tspan>
<tspan x="10" y="138">  │ │ ├─┬ inflight@1.0.6 </tspan>
<tspan x="10" y="154">  │ │ │ └── wrappy@1.0.2 </tspan>
<tspan x="10" y="170">  │ │ ├─┬ minimatch@3.0.3 </tspan>
<tspan x="10" y="186">  │ │ │ └─┬ brace-expansion@1.1.7 </tspan>
<tspan x="10" y="202">  │ │ │   ├── balanced-match@0.4.2 </tspan>
<tspan x="10" y="218">  │ │ │   └── concat-map@0.0.1 </tspan>
<tspan x="10" y="234">  │ │ ├── once@1.4.0 </tspan>
<tspan x="10" y="250">  │ │ └── path-is-absolute@1.0.1 </tspan>
<tspan x="10" y="266">  │ ├── graceful-fs@4.1.11 </tspan>
<tspan x="10" y="282">  │ ├── lazystream@1.0.0 </tspan>
<tspan x="10" y="298">  │ └─┬ normalize-path@2.1.1 </tspan>
<tspan x="10" y="314">  │   └── remove-trailing-separator@1.0.1 </tspan>
<tspan x="10" y="330">  ├─┬ compress-commons@1.2.0 </tspan>
<tspan x="10" y="346">  │ ├── buffer-crc32@0.2.13 </tspan>
<tspan x="10" y="362">  │ └─┬ crc32-stream@2.0.0 </tspan>
<tspan x="10" y="378">  │   └── crc@3.4.4 </tspan>
<tspan x="10" y="394">  ├── lodash@4.17.4 </tspan>
<tspan x="10" y="410">  └─┬ readable-stream@2.2.9 </tspan>
<tspan x="10" y="426">    ├── buffer-shims@1.0.0 </tspan>
<tspan x="10" y="442">    ├── core-util-is@1.0.2 </tspan>
<tspan x="10" y="458">    ├── inherits@2.0.3 </tspan>
<tspan x="10" y="474">    ├── isarray@1.0.0 </tspan>
<tspan x="10" y="490">    ├── process-nextick-args@1.0.7 </tspan>
<tspan x="10" y="506">    ├── string_decoder@1.0.0 </tspan>
<tspan x="10" y="522">    └── util-deprecate@1.0.2</tspan>
</text>
</svg>
